<svg version="1.1" id="Layer_1" xmlns="http://www.w3.org/2000/svg" xmlns:xlink="http://www.w3.org/1999/xlink" x="0px" y="0px"
	 width="100%" viewBox="0 0 1000 151" enable-background="new 0 0 1000 151" xml:space="preserve">
<path fill="#000000" opacity="1.000000" stroke="none" 
	d="
M1.000000,143.000000 
	C1.000000,95.684029 1.000000,48.368065 1.000001,1.046261 
	C334.333344,1.040427 667.666687,1.040427 1001.000000,1.040427 
	C1001.000000,12.409876 1001.000000,23.738895 1000.664001,35.632111 
	C993.529907,40.036961 988.228821,45.206154 985.113281,53.294579 
	C986.586182,52.776970 987.693176,52.715485 988.272400,52.130936 
	C991.931580,48.438591 995.453064,44.610146 999.080505,40.885536 
	C999.539490,40.414215 1000.351501,40.286766 1001.000000,40.000000 
	C1001.000000,77.301918 1001.000000,114.603828 1001.000000,152.000000 
	C867.310730,152.000000 733.621399,152.000000 599.388611,151.633102 
	C601.623657,145.562531 604.427979,139.865784 604.815674,133.519333 
	C604.186157,133.303391 603.556641,133.087448 602.927185,132.871506 
	C601.805725,135.609650 600.684326,138.347794 599.620667,140.945007 
	C596.932495,139.088104 599.162964,133.218842 593.752625,133.150452 
	C593.507812,133.751617 593.372986,133.914642 593.401672,134.040329 
	C593.545898,134.672699 593.713867,135.301254 593.907837,135.920395 
	C595.531128,141.102875 599.880615,146.260666 594.035828,151.511826 
	C593.948303,151.590454 594.008667,151.833633 594.000000,152.000000 
	C396.333344,152.000000 198.666672,152.000000 1.000000,151.998138 
	C1.000000,150.664078 1.000000,149.331863 1.463121,147.417770 
	C39.053585,146.879272 76.180931,146.926300 113.308281,146.940887 
	C114.082153,146.941193 114.856171,146.565796 115.653572,146.359604 
	C120.464294,108.648499 125.250015,71.133438 130.073517,33.322243 
	C128.012772,33.181030 126.708923,33.014179 125.404999,33.013641 
	C90.772614,32.999332 56.140221,33.001865 21.507830,33.003864 
	C20.675533,33.003910 19.661875,32.734459 19.050356,33.109074 
	C17.929304,33.795822 16.361181,34.750702 16.177961,35.802551 
	C15.244996,41.158665 14.670574,46.578587 14.017446,51.981827 
	C12.295594,66.226456 10.654426,80.481079 8.875235,94.718483 
	C6.974654,109.927277 4.982193,125.124924 2.915087,140.311813 
	C2.783730,141.276886 1.661347,142.107071 1.000000,143.000000 
M950.211670,84.287651 
	C955.760864,78.726555 961.825806,73.530960 964.150940,64.730408 
	C955.801758,69.931961 951.010620,77.139870 946.161621,84.992897 
	C944.925659,85.066483 943.689758,85.140060 942.237000,85.226555 
	C946.729492,90.100899 958.933655,92.434433 967.828857,90.108856 
	C966.794556,89.629318 966.148071,89.212067 965.440552,89.020348 
	C960.319946,87.632858 955.187012,86.290947 950.211670,84.287651 
M929.994141,84.232590 
	C926.263000,76.326187 920.670105,70.094574 913.437317,65.325798 
	C915.989868,73.629181 921.442932,79.678703 927.205200,85.284264 
	C921.253296,86.628143 915.301453,87.972031 909.349548,89.315918 
	C909.471619,89.820549 909.593628,90.325188 909.715637,90.829826 
	C918.540405,91.441780 927.157349,90.997047 934.836304,85.216103 
	C933.254883,85.129143 931.673462,85.042191 929.994141,84.232590 
M807.175171,137.714615 
	C807.941101,137.160538 808.707031,136.606476 809.472961,136.052399 
	C807.643982,135.037796 805.730835,133.108047 804.009644,133.266220 
	C802.292358,133.424026 800.767334,135.673965 799.158020,137.006668 
	C800.368103,138.331039 801.430725,139.848953 802.834961,140.918564 
	C803.961609,141.776779 805.502441,142.091324 806.859497,142.647095 
	C806.689331,143.103928 806.519226,143.560760 806.349121,144.017593 
	C804.066284,143.420380 801.783447,142.823166 798.916260,142.073074 
	C799.443726,146.055084 801.470642,147.517487 804.411621,146.873322 
	C806.368652,146.444656 808.922485,145.266052 809.704956,143.680649 
	C811.283081,140.483307 808.424438,139.152557 806.239075,137.787766 
	C806.239075,137.787766 806.523499,137.469391 807.175171,137.714615 
M752.757263,137.786743 
	C752.757263,137.786743 753.075806,138.075638 752.635071,138.619995 
	C751.222839,140.310165 748.681458,141.978271 748.647888,143.695374 
	C748.589294,146.693466 751.424316,147.276840 754.183655,146.986923 
	C756.361206,146.758102 758.554749,146.681381 760.633423,146.544205 
	C760.398315,143.336884 760.504089,140.498077 759.880798,137.829575 
	C759.486023,136.139481 758.266479,133.736206 756.949524,133.379868 
	C754.978943,132.846695 752.532959,133.630554 750.430115,134.298004 
	C749.813110,134.493866 749.673401,136.193542 749.315002,137.203995 
	C750.366028,137.292175 751.416992,137.380356 752.757263,137.786743 
M213.500000,33.001152 
	C188.217178,33.001152 162.934357,33.001152 137.437836,33.001152 
	C132.553604,71.205551 127.741386,108.846588 122.863922,146.998047 
	C128.201630,146.998047 132.513000,146.998062 136.824387,146.998032 
	C168.318344,146.997849 199.812408,146.958862 231.306107,147.048584 
	C235.070374,147.059296 237.012650,146.408264 237.157654,141.907898 
	C237.358749,135.666702 238.598663,129.458359 239.405212,123.237419 
	C240.932281,111.458969 242.474777,99.682518 243.997238,87.903473 
	C245.561920,75.797661 247.120316,63.691010 248.661636,51.582199 
	C249.423386,45.597801 250.140457,39.607716 250.953949,33.001156 
	C238.419891,33.001156 226.459946,33.001156 213.500000,33.001152 
M361.164459,114.849533 
	C361.775726,110.611450 362.431061,106.379158 362.989777,102.134155 
	C364.539062,90.362495 366.059998,78.587051 367.569641,66.810226 
	C368.987885,55.746075 370.377441,44.678234 371.801117,33.442337 
	C333.716827,33.442337 296.031708,33.442337 258.245819,33.442337 
	C253.409531,71.381653 248.627075,108.898727 243.770386,146.998138 
	C255.096542,146.998138 265.395233,146.998199 275.693909,146.998138 
	C301.179657,146.997986 326.665405,146.985474 352.151123,147.016388 
	C354.736633,147.019516 357.428070,147.197067 357.847046,143.793259 
	C358.996643,134.454315 359.993164,125.096504 361.164459,114.849533 
M807.999634,93.504349 
	C807.656738,86.388939 807.582092,79.246925 806.879578,72.167191 
	C806.387024,67.202362 804.729431,62.597027 800.166443,59.493500 
	C791.977966,53.924061 778.746643,54.903629 771.675354,61.820221 
	C770.183899,63.278984 768.658813,64.703323 767.030518,66.256798 
	C759.989014,53.146774 741.286011,52.416370 729.221985,64.915619 
	C729.031738,62.716019 728.851990,60.637985 728.665527,58.482185 
	C726.021606,58.482185 723.673828,58.482185 721.433594,58.482185 
	C721.433594,79.854340 721.433594,100.748024 721.433594,121.574768 
	C724.104736,121.574768 726.337097,121.574768 729.001953,121.574768 
	C729.001953,110.361481 728.637207,99.543259 729.134460,88.764793 
	C729.448364,81.959442 729.547485,74.843658 734.834534,69.247452 
	C739.185242,64.642471 747.501587,62.200504 753.041748,64.612617 
	C758.958313,67.188629 760.159607,72.241150 760.052185,78.158058 
	C759.864807,88.482315 760.000000,98.812431 760.000000,109.140091 
	C760.000000,113.248878 760.000000,117.357666 760.000000,121.666656 
	C762.936951,121.666656 765.168213,121.666656 767.676331,121.666656 
	C767.798340,119.906517 767.949585,118.449272 767.992676,116.988831 
	C768.340393,105.207954 768.645325,93.425774 769.010498,81.645454 
	C769.202148,75.463593 771.818115,70.453903 776.791504,66.812508 
	C781.751160,63.181187 787.412476,62.791924 792.824829,65.081985 
	C798.063843,67.298767 799.110229,72.199425 799.047974,77.566429 
	C798.899353,90.390991 798.990906,103.218460 799.011597,116.044716 
	C799.014465,117.827347 799.165466,119.609734 799.242554,121.277435 
	C807.768982,122.995148 807.995422,122.823029 807.998901,114.991432 
	C808.001953,108.161850 807.999634,101.332268 807.999634,93.504349 
M452.061615,121.988777 
	C456.566559,122.136322 454.253571,119.090401 453.727509,117.700577 
	C443.496033,90.669861 433.092834,63.704182 422.828644,36.685738 
	C421.664429,33.621223 419.725586,32.698368 416.709259,32.978615 
	C413.889984,33.240555 411.180664,32.289871 409.601898,36.441002 
	C400.266815,60.986637 390.528717,85.378937 380.940430,109.828407 
	C379.471191,113.574860 378.075989,117.350342 376.600433,121.233818 
	C385.386261,122.916313 385.462250,122.858116 388.231110,115.607613 
	C390.589172,109.432800 393.116608,103.319351 395.322418,97.091370 
	C396.198151,94.618698 397.526855,93.915573 400.049805,93.947769 
	C410.536438,94.081581 421.029236,93.871826 431.510223,94.148949 
	C433.094849,94.190842 435.420624,95.801186 436.049530,97.266983 
	C438.781830,103.635269 441.172821,110.165298 443.366333,116.743752 
	C444.698975,120.740425 446.769379,122.975693 452.061615,121.988777 
M608.096985,56.146023 
	C596.816467,58.530792 589.375732,65.343430 586.459961,76.360023 
	C583.931213,85.913933 584.143372,95.632515 586.923828,105.278320 
	C592.570312,124.866501 616.717712,127.162170 628.480164,118.724350 
	C630.555725,117.235420 632.336365,115.335228 634.752197,113.179726 
	C634.971252,116.533966 635.137939,119.087059 635.301575,121.593063 
	C638.089966,121.593063 640.316162,121.593063 642.647461,121.593063 
	C642.647461,91.974747 642.647461,62.756592 642.647461,33.334721 
	C640.060730,33.334721 637.829468,33.334721 634.918945,33.334721 
	C634.918945,43.811607 634.918945,53.978565 634.918945,65.095695 
	C626.874084,58.116741 618.578003,55.031147 608.096985,56.146023 
M576.997131,122.501640 
	C582.183350,122.043373 581.232910,118.707153 580.521484,115.375847 
	C574.013489,115.978996 574.006287,115.979004 574.001648,109.230232 
	C573.994629,98.909302 574.297729,88.577385 573.919250,78.270325 
	C573.487244,66.505737 570.647278,59.595242 560.251160,57.506641 
	C553.379089,56.126049 545.740295,56.460777 538.827759,57.885628 
	C528.951782,59.921326 523.098022,69.014107 524.656982,77.725014 
	C527.646362,77.643913 531.055664,79.649597 532.907959,75.078392 
	C537.315552,64.201233 550.324707,60.019558 560.340637,66.189804 
	C564.803040,68.938835 565.385925,73.382156 564.912292,77.993958 
	C564.503479,81.974861 561.199402,82.611221 557.998596,83.129631 
	C556.217712,83.418068 554.428284,83.663780 552.658813,84.010902 
	C545.883972,85.339989 538.906616,86.062027 532.390015,88.190208 
	C520.125366,92.195580 516.769531,108.367012 525.914734,117.415123 
	C533.586853,125.005867 549.268738,125.400162 560.172058,118.275040 
	C561.796570,117.213417 563.416931,116.145287 565.105286,115.036781 
	C567.364075,121.375603 569.537354,122.846329 576.997131,122.501640 
M673.476196,57.797104 
	C670.505798,59.511414 667.081604,60.741230 664.644226,63.024536 
	C654.504822,72.523003 652.652466,84.762245 654.466553,97.773636 
	C655.709106,106.685493 659.013062,114.649506 667.275513,119.643387 
	C673.628296,123.483063 680.605225,123.081398 687.564880,122.999619 
	C698.905945,122.866348 709.274536,113.266792 710.616028,101.471779 
	C706.051636,100.527924 702.352905,100.111198 699.917969,105.853195 
	C696.162659,114.708679 686.035889,118.106728 676.359192,114.663597 
	C667.842773,111.633324 661.789124,101.044556 663.882568,91.777542 
	C679.698181,91.777542 695.701355,91.777542 711.784241,91.777542 
	C711.477478,87.906479 711.432556,84.766869 710.948486,81.696518 
	C709.296875,71.221931 705.264832,62.260540 694.592346,58.050018 
	C687.911072,55.414131 681.062073,55.243511 673.476196,57.797104 
M830.515259,107.916519 
	C831.719055,110.995033 832.615540,114.242195 834.192627,117.115822 
	C837.191528,122.580200 833.624207,126.890358 832.117004,131.555267 
	C830.132141,137.698563 825.673645,139.382629 819.689331,138.136383 
	C819.309570,138.057266 818.826721,138.473282 818.369873,138.668320 
	C818.369873,141.011551 818.369873,143.245865 818.369873,145.430984 
	C831.234192,146.951553 833.925964,146.826355 840.563904,133.729004 
	C840.785645,133.291443 840.851746,132.777878 841.030334,132.315155 
	C846.920410,117.057076 852.860962,101.818283 858.692627,86.537888 
	C862.214355,77.310081 865.568054,68.018135 869.026306,58.676609 
	C860.524231,57.080551 860.344849,57.223141 857.718994,64.519638 
	C855.536621,70.583916 853.231506,76.604103 850.968384,82.639191 
	C847.621948,91.563339 844.264526,100.483383 840.534485,110.409073 
	C834.453186,94.214035 828.697449,79.105576 823.120483,63.931393 
	C820.717773,57.393990 819.273865,56.591042 811.963867,59.103119 
	C818.038574,75.144920 824.110107,91.178383 830.515259,107.916519 
M512.863708,104.212265 
	C513.181030,102.670380 513.498352,101.128502 513.884949,99.250214 
	C509.765533,99.314178 505.594574,97.035912 503.998749,103.082680 
	C501.890259,111.072083 495.889771,115.183884 488.067078,115.823700 
	C480.746490,116.422432 474.342346,113.854713 470.402130,107.033310 
	C463.770813,95.553017 463.986847,83.839142 470.381500,72.565536 
	C474.331055,65.602524 481.176025,63.094719 489.183258,63.999413 
	C495.499817,64.713089 500.712585,67.930618 502.499573,73.693748 
	C504.452911,79.993195 508.011047,79.465179 512.596558,78.520386 
	C512.720886,77.848183 512.972168,77.327545 512.876892,76.880836 
	C511.022522,68.186913 507.276276,60.946571 498.117554,57.935799 
	C487.574493,54.469940 477.396088,54.926521 468.542480,62.092533 
	C458.955078,69.852531 456.690277,80.685081 456.954498,92.471703 
	C457.338318,109.594528 467.137146,124.103539 487.271698,123.289284 
	C498.609985,122.830772 509.236359,116.713959 512.863708,104.212265 
M949.609375,39.000473 
	C954.367554,39.000473 959.125732,39.000473 963.789062,39.000473 
	C963.789062,35.004749 963.789062,31.722578 963.789062,27.982456 
	C957.187500,27.982456 950.777283,27.982456 943.921570,27.982456 
	C943.921570,21.120584 943.921570,14.713509 943.921570,8.307835 
	C940.051941,8.307835 936.656860,8.307835 932.801270,8.307835 
	C932.801270,15.010180 932.801270,21.417284 932.801270,28.263496 
	C925.925903,28.263496 919.516968,28.263496 913.219238,28.263496 
	C913.219238,32.013363 913.219238,35.295723 913.219238,39.034294 
	C919.828979,39.034294 926.238403,39.034294 933.093079,39.034294 
	C933.093079,45.897312 933.093079,52.306503 933.093079,58.690430 
	C936.962463,58.690430 940.358337,58.690430 944.034424,58.690430 
	C944.034424,52.105034 944.034424,45.823185 944.034424,39.230381 
	C945.739990,39.145203 947.188660,39.072849 949.609375,39.000473 
M574.531128,142.910950 
	C574.307251,139.309128 574.412170,135.638840 573.684326,132.141937 
	C573.423401,130.888351 571.264771,129.431000 569.775024,129.162964 
	C567.095886,128.680939 564.267761,129.026840 561.337891,129.026840 
	C561.337891,135.305969 561.337891,140.864716 561.337891,146.813156 
	C566.076599,146.569595 570.949585,148.800568 574.531128,142.910950 
M674.198364,129.000427 
	C671.949097,129.000427 669.699829,129.000427 667.361938,129.000427 
	C667.361938,135.371094 667.361938,140.924667 667.361938,146.996201 
	C669.676758,146.996201 671.633850,147.049454 673.587219,146.986267 
	C679.640503,146.790527 681.671204,143.779556 679.749817,138.086899 
	C679.473145,137.267029 679.652466,136.240982 679.799438,135.339508 
	C680.414307,131.569214 679.367310,129.095230 674.198364,129.000427 
M472.995422,142.461258 
	C471.648071,138.749756 470.357147,135.016434 468.934143,131.334152 
	C467.935516,128.750137 465.494476,127.708633 464.220551,130.186752 
	C461.591064,135.301743 459.894531,140.896301 457.814240,146.293579 
	C458.277740,146.596100 458.741241,146.898621 459.204742,147.201141 
	C460.160431,146.378876 461.312775,145.700256 462.037018,144.708893 
	C464.819641,140.899948 467.591064,140.961609 470.140564,144.821930 
	C470.728485,145.712128 472.071564,146.103592 473.067169,146.724548 
	C473.091736,145.558441 473.116333,144.392334 472.995422,142.461258 
M494.537811,135.081146 
	C494.518311,138.332504 493.651550,141.945053 494.821442,144.689407 
	C495.446625,146.156052 499.580841,146.539978 502.139435,146.564255 
	C503.150696,146.573837 504.183807,144.278595 505.206970,143.032806 
	C498.776428,143.721130 498.776428,143.721130 497.460083,141.298187 
	C500.098785,141.094315 502.652985,140.896973 505.198730,140.700287 
	C504.641846,132.795944 501.550110,130.996719 494.537811,135.081146 
M512.237244,133.397156 
	C511.479126,134.669647 510.721008,135.942139 509.413666,138.136459 
	C512.859619,137.132141 514.574951,136.632202 516.290283,136.132263 
	C516.431580,136.571991 516.572876,137.011703 516.714172,137.451431 
	C515.087708,137.977676 513.295532,138.237030 511.885956,139.112396 
	C510.702393,139.847427 509.140594,141.367813 509.226562,142.419479 
	C509.349548,143.923492 510.643097,146.371475 511.751740,146.559525 
	C515.026184,147.114944 518.455383,146.757996 521.682983,146.757996 
	C520.977722,143.687363 520.164490,141.582199 520.065491,139.443954 
	C519.777466,133.223465 519.639526,132.992340 512.237244,133.397156 
M792.371094,140.982788 
	C793.231812,139.912888 795.026733,138.464844 794.775818,137.844910 
	C794.058472,136.072678 792.793335,133.756332 791.229309,133.253403 
	C788.056580,132.233185 784.988770,133.084335 783.615906,136.840424 
	C782.270203,140.522034 782.736267,144.093994 786.001892,146.078934 
	C787.743835,147.137772 790.716187,146.605942 792.993164,146.126755 
	C793.842651,145.948013 794.293823,143.876511 795.086487,142.362732 
	C791.960938,142.731644 789.778259,142.989273 787.595581,143.246887 
	C787.514160,142.634842 787.432739,142.022781 787.351379,141.410721 
	C788.746460,141.273483 790.141602,141.136246 792.371094,140.982788 
M533.819397,132.726776 
	C533.583618,132.904373 533.345764,133.239761 533.112427,133.236633 
	C526.264038,133.145065 524.840515,134.415939 525.001526,140.530533 
	C525.140076,145.792358 526.742004,146.963104 533.143677,146.583923 
	C534.242126,146.518875 535.353943,146.678802 536.428101,146.733215 
	C536.428101,140.737381 536.428101,134.982712 536.428101,129.228027 
	C535.968445,129.140823 535.508789,129.053619 535.049133,128.966415 
	C534.685791,129.975098 534.322510,130.983780 533.819397,132.726776 
M584.584167,133.010651 
	C579.317566,133.130463 578.374878,137.244507 578.354980,140.956024 
	C578.340393,143.680573 579.506470,146.902359 583.607117,147.031143 
	C587.104370,147.140961 589.694397,146.387085 590.353027,142.294235 
	C587.583801,142.641678 585.120056,142.950775 582.656311,143.259888 
	C582.573181,142.641769 582.490051,142.023651 582.406921,141.405518 
	C585.205566,141.117538 588.004211,140.829544 591.134460,140.507431 
	C589.984924,136.859711 590.087219,133.101379 584.584167,133.010651 
M738.757141,146.997421 
	C740.353333,146.884003 741.949585,146.770569 743.252930,146.677948 
	C743.252930,140.525208 743.252930,134.854187 743.252930,129.225204 
	C741.079285,130.727707 739.510254,132.682617 737.775574,132.842636 
	C733.182617,133.266342 732.285889,136.667206 732.247437,139.783463 
	C732.206360,143.115158 733.014648,146.964294 738.757141,146.997421 
M651.958130,131.124924 
	C651.559570,130.494202 651.161011,129.863480 650.762451,129.232773 
	C649.855591,130.534683 648.948730,131.836594 648.041870,133.138519 
	C645.438721,133.431580 642.067627,134.205734 641.338318,136.033798 
	C640.336731,138.544220 640.203857,142.980057 641.758057,144.542419 
	C643.827576,146.622787 647.877563,146.733078 651.990784,147.962952 
	C651.990784,141.537811 651.990784,136.769562 651.958130,131.124924 
M435.500854,146.482956 
	C436.815704,145.186279 438.130554,143.889587 439.400513,142.637177 
	C441.001221,144.030624 442.879883,145.666077 444.758545,147.301529 
	C445.164734,146.892715 445.570923,146.483902 445.977112,146.075089 
	C444.716675,143.637924 443.456268,141.200745 442.176758,138.726654 
	C443.434692,137.077927 444.676941,135.449768 445.919189,133.821609 
	C445.630066,133.419022 445.340942,133.016434 445.051819,132.613846 
	C442.802917,133.745728 440.553986,134.877609 438.431824,135.945694 
	C438.013428,133.618286 437.604248,131.342041 437.195038,129.065796 
	C436.515930,129.132050 435.836792,129.198318 435.157654,129.264572 
	C435.157654,134.748978 435.157654,140.233368 435.500854,146.482956 
M610.051636,145.506210 
	C612.947083,145.502075 616.515808,146.553101 618.575317,145.238922 
	C621.445068,143.407806 621.930481,139.259888 619.750244,136.387756 
	C618.422913,134.639206 615.506714,133.229843 613.286072,133.203674 
	C608.411255,133.146255 606.731140,138.821091 610.051636,145.506210 
M478.012909,144.044968 
	C478.525024,145.005783 479.037109,145.966614 479.549225,146.927444 
	C480.035461,146.773758 480.521698,146.620071 481.007935,146.466385 
	C481.007935,144.357086 480.685638,142.178955 481.116455,140.161667 
	C481.425629,138.713974 482.741547,137.481293 483.608368,136.152695 
	C484.403595,137.546860 485.540649,138.856461 485.911560,140.355606 
	C486.430573,142.453430 486.378510,144.692551 486.570770,146.871216 
	C487.363953,146.819641 488.157135,146.768082 488.950287,146.716507 
	C488.757019,142.823990 489.103241,138.782501 488.090759,135.116226 
	C487.713928,133.751724 484.158234,133.265106 481.144043,131.995773 
	C481.088867,131.852631 480.527771,130.397171 479.966675,128.941727 
	C479.311920,129.030060 478.657196,129.118408 478.002441,129.206757 
	C478.002441,133.850876 478.002441,138.495010 478.012909,144.044968 
M405.789673,145.844482 
	C405.859833,143.856323 405.992004,141.868057 405.988647,139.880020 
	C405.977905,133.527405 405.075928,132.740005 398.626831,133.312637 
	C398.073517,131.856293 397.520203,130.399933 396.966888,128.943588 
	C396.398224,129.061752 395.829529,129.179916 395.260834,129.298080 
	C394.940216,135.128998 394.639465,140.959381 396.473724,146.812988 
	C397.681549,144.566650 397.535370,142.176315 398.150665,140.001419 
	C398.560913,138.551163 400.056335,137.407898 401.066101,136.127243 
	C401.709656,137.397720 402.583221,138.609070 402.929565,139.955963 
	C403.250305,141.203506 402.711395,142.692337 403.103027,143.895203 
	C403.435425,144.916168 404.555450,145.680710 405.789673,145.844482 
M695.896179,135.782883 
	C693.657227,132.096603 690.352905,132.087921 687.322449,134.089813 
	C684.261963,136.111557 683.935547,139.443115 685.067017,142.891434 
	C686.210022,146.374725 688.792725,147.380478 692.088562,146.931473 
	C696.068176,146.389297 697.710205,142.091660 695.896179,135.782883 
M378.809570,131.939926 
	C379.868866,133.019501 381.614838,133.971283 381.844482,135.205261 
	C382.322510,137.774078 381.776672,140.519379 382.097168,143.137604 
	C382.255707,144.432648 383.402893,145.606674 384.102722,146.835464 
	C384.734314,145.538208 385.809479,144.274521 385.910767,142.937119 
	C386.170471,139.507507 385.997498,136.045151 385.997498,132.799225 
	C388.058899,132.079636 389.542755,131.561646 391.026581,131.043671 
	C390.936066,130.416519 390.845551,129.789383 390.755035,129.162231 
	C386.618347,129.162231 382.480774,129.136368 378.348511,129.271393 
	C378.206085,129.276047 378.116333,130.890808 378.809570,131.939926 
M424.565948,136.155823 
	C425.376526,137.865829 426.406464,139.511078 426.935944,141.304092 
	C427.463531,143.090698 427.489166,145.025543 427.734894,146.895386 
	C428.469147,146.843781 429.203369,146.792175 429.937622,146.740570 
	C429.758362,142.851715 430.719574,138.312546 429.002167,135.300766 
	C427.841461,133.265228 422.908264,133.380844 419.915894,132.600372 
	C419.915894,137.993011 419.915894,142.396790 419.915894,146.800568 
	C420.269958,146.775879 420.624023,146.751175 420.978119,146.726486 
	C421.906403,143.252823 422.834717,139.779175 424.565948,136.155823 
M628.010559,139.855286 
	C628.967590,138.635742 629.924561,137.416183 630.881592,136.196625 
	C631.584961,137.507660 632.618042,138.748459 632.915710,140.145935 
	C633.382263,142.335831 633.351990,144.631561 633.532104,146.882462 
	C634.347229,146.843033 635.162354,146.803589 635.977417,146.764160 
	C635.717712,142.786606 636.479797,138.283920 634.808350,135.031921 
	C633.833069,133.134415 628.965759,133.237244 625.694397,132.400452 
	C625.694397,138.064774 625.694397,142.425323 625.694397,146.785889 
	C626.249146,146.819794 626.803833,146.853699 627.358582,146.887589 
	C627.573486,144.832520 627.788391,142.777435 628.010559,139.855286 
M701.007751,142.109268 
	C702.248901,147.349838 704.393799,148.170761 711.200684,146.253876 
	C711.200684,141.805054 711.200684,137.488312 711.200684,133.171570 
	C710.651367,133.156036 710.102051,133.140503 709.552795,133.124969 
	C709.366821,135.246994 709.469910,137.450424 708.902344,139.464935 
	C708.458496,141.040314 707.182678,142.381317 706.276550,143.826416 
	C705.519836,142.396027 704.451233,141.041092 704.082581,139.516861 
	C703.583801,137.454712 703.622314,135.262634 703.430359,133.126297 
	C702.620300,133.166229 701.810303,133.206177 701.000305,133.246124 
	C701.000305,135.901947 701.000305,138.557785 701.007751,142.109268 
M720.808594,137.624710 
	C723.746216,134.368103 724.561768,136.671478 724.933350,139.319824 
	C725.282410,141.807098 725.290833,144.342148 725.449097,146.856186 
	C726.279358,146.815216 727.109619,146.774261 727.939880,146.733292 
	C727.758362,142.845001 728.715820,138.307159 726.997986,135.295135 
	C725.838501,133.262009 720.906860,133.380280 717.913696,132.601547 
	C717.913696,137.994324 717.913696,142.397476 717.913696,146.800613 
	C718.442627,146.796005 718.971619,146.791412 719.500549,146.786819 
	C719.783142,143.964523 720.065796,141.142227 720.808594,137.624710 
M972.832397,75.999214 
	C980.298096,75.009109 987.624756,73.652512 993.466614,68.354553 
	C984.895325,68.812042 976.587463,70.035995 968.565308,75.819824 
	C970.453003,75.917328 971.239380,75.957939 972.832397,75.999214 
M972.350891,84.000473 
	C975.885254,83.555489 979.419678,83.110504 982.954041,82.665520 
	C982.900452,82.229958 982.846802,81.794403 982.793152,81.358841 
	C974.260803,79.426460 965.769897,78.964020 957.373901,81.862663 
	C957.380005,82.575333 957.386108,83.288010 957.392151,84.000679 
	C962.061646,84.000679 966.731201,84.000679 972.350891,84.000473 
M902.795959,83.999969 
	C905.770203,84.000084 908.750549,84.117355 911.716919,83.965034 
	C914.317017,83.831528 916.901611,83.395424 919.492981,83.092987 
	C913.225098,79.096901 900.601868,79.104752 894.568848,82.437828 
	C897.336853,83.029121 899.606689,83.514008 902.795959,83.999969 
M891.011292,8.523226 
	C890.768982,6.716406 890.526672,4.909586 890.167725,2.233068 
	C886.223145,7.953073 885.952332,19.858971 891.083130,27.092770 
	C891.083130,20.388105 891.083130,14.895974 891.011292,8.523226 
M886.057678,70.556358 
	C896.461792,75.490784 902.439148,76.771049 907.391235,75.125694 
	C899.679749,70.057266 889.509766,67.320404 883.167725,68.828880 
	C884.129333,69.353569 884.796936,69.717857 886.057678,70.556358 
M881.887878,22.426743 
	C881.271301,22.810772 880.107178,23.234125 880.131470,23.572126 
	C880.245789,25.163811 880.573792,26.765358 881.029785,28.302805 
	C882.740051,34.068996 884.995178,39.508038 889.977051,43.157688 
	C890.532410,42.871426 891.087830,42.585159 891.643188,42.298897 
	C888.571655,35.858395 885.500183,29.417896 881.887878,22.426743 
M905.043823,68.308609 
	C907.262451,71.011147 909.481018,73.713692 911.699646,76.416229 
	C911.506592,67.770676 907.746338,61.351635 901.567871,56.315601 
	C901.071167,56.548252 900.574463,56.780899 900.077759,57.013550 
	C901.696960,60.531979 903.316162,64.050407 905.043823,68.308609 
M976.039368,58.867485 
	C976.291809,58.001099 976.544312,57.134708 977.011841,55.530434 
	C969.846558,60.529697 964.746460,69.913307 965.625793,75.526169 
	C971.303223,70.586960 974.423279,65.811386 976.039368,58.867485 
M988.915222,35.361675 
	C988.182434,37.660778 987.449585,39.959877 986.358826,43.381969 
	C994.296753,37.015179 998.070862,28.079874 995.681580,21.033213 
	C993.209167,26.043453 991.102783,30.312000 988.915222,35.361675 
M987.196594,25.899664 
	C991.467285,18.412331 990.423157,10.790830 987.976013,3.126902 
	C984.934570,10.523294 985.239563,18.115007 987.196594,25.899664 
M899.000061,21.809031 
	C899.000061,20.723566 899.000061,19.638102 899.000061,18.552637 
	C893.299683,24.949633 891.961792,32.428299 892.019958,40.288078 
	C892.692627,40.478767 893.365295,40.669456 894.038025,40.860146 
	C895.692017,34.789253 897.346008,28.718361 899.000061,21.809031 
M888.984253,57.483822 
	C886.335266,56.156460 883.686279,54.829094 881.037292,53.501732 
	C880.815552,53.928684 880.593811,54.355637 880.372131,54.782589 
	C885.851562,60.771824 891.979309,65.686569 900.231689,67.080536 
	C900.508240,66.672935 900.784851,66.265335 901.061401,65.857735 
	C897.237244,63.213303 893.413025,60.568871 888.984253,57.483822 
M982.958618,24.853767 
	C981.732666,22.519501 980.506714,20.185234 979.280701,17.850967 
	C978.887268,18.012230 978.493835,18.173492 978.100342,18.334755 
	C978.774414,26.071234 979.824890,33.708317 984.053223,40.506371 
	C984.587646,40.399372 985.122070,40.292374 985.656555,40.185375 
	C984.773315,35.346428 983.890137,30.507481 982.958618,24.853767 
M883.993774,41.491257 
	C881.843689,39.738468 879.693604,37.985680 877.028015,35.812668 
	C878.393738,42.945019 885.940063,51.211338 892.581604,51.864590 
	C889.888245,48.576714 887.194885,45.288837 883.993774,41.491257 
M994.471436,57.020473 
	C995.235596,56.172760 995.999756,55.325047 996.763916,54.477333 
	C989.056396,56.592136 982.480103,60.303482 977.661133,66.667839 
	C984.221069,65.534836 989.524353,62.267662 994.471436,57.020473 
M896.914734,43.505470 
	C896.122803,48.223499 895.330872,52.941532 894.538940,57.659561 
	C895.178467,57.758266 895.817993,57.856972 896.457458,57.955673 
	C898.988220,51.294941 901.996887,44.733215 899.534241,36.845753 
	C898.687500,38.789742 897.840698,40.733730 896.914734,43.505470 
M979.118286,39.582802 
	C978.603516,38.625355 978.088684,37.667904 977.116699,35.860176 
	C976.720581,44.266140 976.949524,51.374744 981.107910,57.577038 
	C981.670471,57.462246 982.233032,57.347454 982.795593,57.232662 
	C981.751221,51.540359 980.706848,45.848061 979.118286,39.582802 
M765.012695,144.070908 
	C765.501343,144.966400 765.989990,145.861893 766.478638,146.757385 
	C766.931396,146.367645 767.663391,146.053696 767.793030,145.576218 
	C768.867920,141.616455 769.831421,137.626465 770.877075,133.452393 
	C769.568665,133.452393 767.449524,133.452393 765.002014,133.452393 
	C765.002014,136.908630 765.002014,140.042923 765.012695,144.070908 
M410.999786,137.725250 
	C411.098114,140.766602 411.196411,143.807938 411.294739,146.849289 
	C411.961487,146.809479 412.628235,146.769684 413.294983,146.729874 
	C413.294983,142.242401 413.294983,137.754929 413.294983,133.267441 
	C412.773560,133.193985 412.252106,133.120529 411.730682,133.047058 
	C411.487915,134.306137 411.245148,135.565216 410.999786,137.725250 
M776.645813,146.541992 
	C777.252075,146.471146 778.387146,146.410690 778.388733,146.327988 
	C778.474487,141.954422 778.464539,137.578964 778.464539,133.203720 
	C777.709351,133.191467 776.954102,133.179214 776.198914,133.166977 
	C776.198914,137.377869 776.198914,141.588776 776.645813,146.541992 
z"/>
<path fill="#213F7D" opacity="1.000000" stroke="none" 
	d="
M1.000000,143.399994 
	C1.661347,142.107071 2.783730,141.276886 2.915087,140.311813 
	C4.982193,125.124924 6.974654,109.927277 8.875235,94.718483 
	C10.654426,80.481079 12.295594,66.226456 14.017446,51.981827 
	C14.670574,46.578587 15.244996,41.158665 16.177961,35.802551 
	C16.361181,34.750702 17.929304,33.795822 19.050356,33.109074 
	C19.661875,32.734459 20.675533,33.003910 21.507830,33.003864 
	C56.140221,33.001865 90.772614,32.999332 125.404999,33.013641 
	C126.708923,33.014179 128.012772,33.181030 130.073517,33.322243 
	C125.250015,71.133438 120.464294,108.648499 115.653572,146.359604 
	C114.856171,146.565796 114.082153,146.941193 113.308281,146.940887 
	C76.180931,146.926300 39.053585,146.879272 1.463121,146.917938 
	C1.000000,145.933334 1.000000,144.866653 1.000000,143.399994 
M74.489296,80.042572 
	C71.076187,88.527008 67.663071,97.011444 63.708168,106.842690 
	C62.858772,103.718925 62.307999,102.191284 62.036129,100.615524 
	C59.655766,86.819221 57.398739,73.000732 54.854572,59.235134 
	C54.625721,57.996906 52.751133,56.376835 51.441521,56.164719 
	C48.562294,55.698376 45.555435,56.020035 42.059341,56.020035 
	C42.216965,58.025318 42.171764,59.477295 42.463615,60.858028 
	C46.586449,80.363045 50.803432,99.848366 54.850548,119.368935 
	C55.348545,121.770943 55.264034,124.360497 58.609447,123.926491 
	C62.061230,123.478676 66.321747,125.967865 68.593132,120.874908 
	C76.676376,102.750450 84.945648,84.709030 93.108086,66.619751 
	C94.617409,63.274853 95.957726,59.853699 97.572327,55.999149 
	C94.302040,55.999149 91.791267,56.210300 89.330467,55.949673 
	C85.637428,55.558533 83.758698,56.792385 82.514786,60.538013 
	C80.384300,66.953262 77.463905,73.106194 74.489296,80.042572 
z"/>
<path fill="#203E7C" opacity="1.000000" stroke="none" 
	d="
M594.416626,152.000000 
	C594.008667,151.833633 593.948303,151.590454 594.035828,151.511826 
	C599.880615,146.260666 595.531128,141.102875 593.907837,135.920395 
	C593.713867,135.301254 593.545898,134.672699 593.401672,134.040329 
	C593.372986,133.914642 593.507812,133.751617 593.752625,133.150452 
	C599.162964,133.218842 596.932495,139.088104 599.620667,140.945007 
	C600.684326,138.347794 601.805725,135.609650 602.927185,132.871506 
	C603.556641,133.087448 604.186157,133.303391 604.815674,133.519333 
	C604.427979,139.865784 601.623657,145.562531 598.922546,151.633102 
	C597.611084,152.000000 596.222229,152.000000 594.416626,152.000000 
z"/>
<path fill="#DF9025" opacity="1.000000" stroke="none" 
	d="
M1001.000000,39.600006 
	C1000.351501,40.286766 999.539490,40.414215 999.080505,40.885536 
	C995.453064,44.610146 991.931580,48.438591 988.272400,52.130936 
	C987.693176,52.715485 986.586182,52.776970 985.113281,53.294579 
	C988.228821,45.206154 993.529907,40.036961 1000.664001,36.098152 
	C1001.000000,37.066669 1001.000000,38.133339 1001.000000,39.600006 
z"/>
<path fill="#213F7D" opacity="1.000000" stroke="none" 
	d="
M214.000000,33.001152 
	C226.459946,33.001156 238.419891,33.001156 250.953949,33.001156 
	C250.140457,39.607716 249.423386,45.597801 248.661636,51.582199 
	C247.120316,63.691010 245.561920,75.797661 243.997238,87.903473 
	C242.474777,99.682518 240.932281,111.458969 239.405212,123.237419 
	C238.598663,129.458359 237.358749,135.666702 237.157654,141.907898 
	C237.012650,146.408264 235.070374,147.059296 231.306107,147.048584 
	C199.812408,146.958862 168.318344,146.997849 136.824387,146.998032 
	C132.513000,146.998062 128.201630,146.998047 122.863922,146.998047 
	C127.741386,108.846588 132.553604,71.205551 137.437836,33.001152 
	C162.934357,33.001152 188.217178,33.001152 214.000000,33.001152 
M186.500488,55.998848 
	C180.099014,55.998848 173.697556,55.998848 167.392593,55.998848 
	C166.908432,60.112198 166.534683,63.287510 166.088776,67.075989 
	C171.980072,67.075989 177.233459,67.075989 182.973892,67.075989 
	C180.646347,86.227760 178.392792,104.770859 176.055969,123.998993 
	C178.955353,123.998993 181.432755,123.762024 183.846008,124.054436 
	C187.480484,124.494827 188.538788,122.308235 188.890076,119.484703 
	C189.683899,113.104149 190.247147,106.695107 191.021149,100.311836 
	C192.346634,89.380104 193.761703,78.459236 195.206390,67.000565 
	C199.220749,67.000565 202.841415,67.009987 206.462036,66.998405 
	C212.239746,66.979927 212.912842,66.318115 212.976746,60.385193 
	C212.990494,59.107018 212.753113,57.826138 212.579315,55.998844 
	C204.057861,55.998844 195.779037,55.998844 186.500488,55.998848 
z"/>
<path fill="#213F7D" opacity="1.000000" stroke="none" 
	d="
M361.107361,115.297844 
	C359.993164,125.096504 358.996643,134.454315 357.847046,143.793259 
	C357.428070,147.197067 354.736633,147.019516 352.151123,147.016388 
	C326.665405,146.985474 301.179657,146.997986 275.693909,146.998138 
	C265.395233,146.998199 255.096542,146.998138 243.770386,146.998138 
	C248.627075,108.898727 253.409531,71.381653 258.245819,33.442337 
	C296.031708,33.442337 333.716827,33.442337 371.801117,33.442337 
	C370.377441,44.678234 368.987885,55.746075 367.569641,66.810226 
	C366.059998,78.587051 364.539062,90.362495 362.989777,102.134155 
	C362.431061,106.379158 361.775726,110.611450 361.107361,115.297844 
M305.204498,68.368866 
	C314.397247,64.673607 319.836700,66.423546 327.498199,75.580185 
	C330.557709,73.379349 333.617615,71.178223 336.626648,69.013695 
	C328.395538,52.485928 305.909485,51.041367 292.549042,62.923588 
	C283.353516,71.101707 279.036469,81.635422 278.117889,93.539597 
	C277.405273,102.774918 279.551636,111.670334 286.718933,118.006844 
	C298.936523,128.808258 319.010559,126.616508 329.387787,114.307793 
	C326.964233,111.399574 324.577484,108.535561 322.139435,105.609978 
	C320.435089,107.178886 319.397583,108.267586 318.228271,109.188972 
	C309.515594,116.054153 296.247986,113.941902 292.592407,105.047615 
	C288.031952,93.951614 293.312958,73.955551 305.204498,68.368866 
z"/>
<path fill="#213F7D" opacity="1.000000" stroke="none" 
	d="
M807.999634,94.003517 
	C807.999634,101.332268 808.001953,108.161850 807.998901,114.991432 
	C807.995422,122.823029 807.768982,122.995148 799.242554,121.277435 
	C799.165466,119.609734 799.014465,117.827347 799.011597,116.044716 
	C798.990906,103.218460 798.899353,90.390991 799.047974,77.566429 
	C799.110229,72.199425 798.063843,67.298767 792.824829,65.081985 
	C787.412476,62.791924 781.751160,63.181187 776.791504,66.812508 
	C771.818115,70.453903 769.202148,75.463593 769.010498,81.645454 
	C768.645325,93.425774 768.340393,105.207954 767.992676,116.988831 
	C767.949585,118.449272 767.798340,119.906517 767.676331,121.666656 
	C765.168213,121.666656 762.936951,121.666656 760.000000,121.666656 
	C760.000000,117.357666 760.000000,113.248878 760.000000,109.140091 
	C760.000000,98.812431 759.864807,88.482315 760.052185,78.158058 
	C760.159607,72.241150 758.958313,67.188629 753.041748,64.612617 
	C747.501587,62.200504 739.185242,64.642471 734.834534,69.247452 
	C729.547485,74.843658 729.448364,81.959442 729.134460,88.764793 
	C728.637207,99.543259 729.001953,110.361481 729.001953,121.574768 
	C726.337097,121.574768 724.104736,121.574768 721.433594,121.574768 
	C721.433594,100.748024 721.433594,79.854340 721.433594,58.482185 
	C723.673828,58.482185 726.021606,58.482185 728.665527,58.482185 
	C728.851990,60.637985 729.031738,62.716019 729.221985,64.915619 
	C741.286011,52.416370 759.989014,53.146774 767.030518,66.256798 
	C768.658813,64.703323 770.183899,63.278984 771.675354,61.820221 
	C778.746643,54.903629 791.977966,53.924061 800.166443,59.493500 
	C804.729431,62.597027 806.387024,67.202362 806.879578,72.167191 
	C807.582092,79.246925 807.656738,86.388939 807.999634,94.003517 
z"/>
<path fill="#213F7D" opacity="1.000000" stroke="none" 
	d="
M451.640106,121.992783 
	C446.769379,122.975693 444.698975,120.740425 443.366333,116.743752 
	C441.172821,110.165298 438.781830,103.635269 436.049530,97.266983 
	C435.420624,95.801186 433.094849,94.190842 431.510223,94.148949 
	C421.029236,93.871826 410.536438,94.081581 400.049805,93.947769 
	C397.526855,93.915573 396.198151,94.618698 395.322418,97.091370 
	C393.116608,103.319351 390.589172,109.432800 388.231110,115.607613 
	C385.462250,122.858116 385.386261,122.916313 376.600433,121.233818 
	C378.075989,117.350342 379.471191,113.574860 380.940430,109.828407 
	C390.528717,85.378937 400.266815,60.986637 409.601898,36.441002 
	C411.180664,32.289871 413.889984,33.240555 416.709259,32.978615 
	C419.725586,32.698368 421.664429,33.621223 422.828644,36.685738 
	C433.092834,63.704182 443.496033,90.669861 453.727509,117.700577 
	C454.253571,119.090401 456.566559,122.136322 451.640106,121.992783 
M406.814941,67.226036 
	C404.526489,73.272041 402.238037,79.318054 399.790741,85.783691 
	C410.932831,85.783691 421.030945,85.783691 431.861145,85.783691 
	C426.594452,71.611908 421.488068,57.871437 416.154755,43.520416 
	C415.337799,44.791546 414.988434,45.173813 414.818451,45.623840 
	C412.196075,52.565384 409.597015,59.515732 406.814941,67.226036 
z"/>
<path fill="#213F7D" opacity="1.000000" stroke="none" 
	d="
M608.534485,56.094723 
	C618.578003,55.031147 626.874084,58.116741 634.918945,65.095695 
	C634.918945,53.978565 634.918945,43.811607 634.918945,33.334721 
	C637.829468,33.334721 640.060730,33.334721 642.647461,33.334721 
	C642.647461,62.756592 642.647461,91.974747 642.647461,121.593063 
	C640.316162,121.593063 638.089966,121.593063 635.301575,121.593063 
	C635.137939,119.087059 634.971252,116.533966 634.752197,113.179726 
	C632.336365,115.335228 630.555725,117.235420 628.480164,118.724350 
	C616.717712,127.162170 592.570312,124.866501 586.923828,105.278320 
	C584.143372,95.632515 583.931213,85.913933 586.459961,76.360023 
	C589.375732,65.343430 596.816467,58.530792 608.534485,56.094723 
M620.316589,64.739761 
	C609.566284,62.105045 600.651917,65.696823 596.434631,75.346153 
	C592.118835,85.220978 591.556091,95.508522 596.794922,105.358475 
	C603.920837,118.756584 622.617554,119.353203 630.663879,106.746994 
	C639.339783,93.154411 634.805969,69.241592 620.316589,64.739761 
z"/>
<path fill="#213F7D" opacity="1.000000" stroke="none" 
	d="
M576.612610,122.665688 
	C569.537354,122.846329 567.364075,121.375603 565.105286,115.036781 
	C563.416931,116.145287 561.796570,117.213417 560.172058,118.275040 
	C549.268738,125.400162 533.586853,125.005867 525.914734,117.415123 
	C516.769531,108.367012 520.125366,92.195580 532.390015,88.190208 
	C538.906616,86.062027 545.883972,85.339989 552.658813,84.010902 
	C554.428284,83.663780 556.217712,83.418068 557.998596,83.129631 
	C561.199402,82.611221 564.503479,81.974861 564.912292,77.993958 
	C565.385925,73.382156 564.803040,68.938835 560.340637,66.189804 
	C550.324707,60.019558 537.315552,64.201233 532.907959,75.078392 
	C531.055664,79.649597 527.646362,77.643913 524.656982,77.725014 
	C523.098022,69.014107 528.951782,59.921326 538.827759,57.885628 
	C545.740295,56.460777 553.379089,56.126049 560.251160,57.506641 
	C570.647278,59.595242 573.487244,66.505737 573.919250,78.270325 
	C574.297729,88.577385 573.994629,98.909302 574.001648,109.230232 
	C574.006287,115.979004 574.013489,115.978996 580.521484,115.375847 
	C581.232910,118.707153 582.183350,122.043373 576.612610,122.665688 
M535.670227,114.126884 
	C553.948242,120.340569 567.856995,108.586754 564.413879,89.664772 
	C561.982971,90.117874 559.561218,90.613899 557.123779,91.014954 
	C550.794678,92.056366 544.364624,92.674057 538.157471,94.202339 
	C533.788208,95.278091 530.638916,98.440170 530.045410,103.285919 
	C529.498291,107.752213 530.568848,111.556145 535.670227,114.126884 
z"/>
<path fill="#213F7D" opacity="1.000000" stroke="none" 
	d="
M673.829773,57.598320 
	C681.062073,55.243511 687.911072,55.414131 694.592346,58.050018 
	C705.264832,62.260540 709.296875,71.221931 710.948486,81.696518 
	C711.432556,84.766869 711.477478,87.906479 711.784241,91.777542 
	C695.701355,91.777542 679.698181,91.777542 663.882568,91.777542 
	C661.789124,101.044556 667.842773,111.633324 676.359192,114.663597 
	C686.035889,118.106728 696.162659,114.708679 699.917969,105.853195 
	C702.352905,100.111198 706.051636,100.527924 710.616028,101.471779 
	C709.274536,113.266792 698.905945,122.866348 687.564880,122.999619 
	C680.605225,123.081398 673.628296,123.483063 667.275513,119.643387 
	C659.013062,114.649506 655.709106,106.685493 654.466553,97.773636 
	C652.652466,84.762245 654.504822,72.523003 664.644226,63.024536 
	C667.081604,60.741230 670.505798,59.511414 673.829773,57.598320 
M698.038330,70.576889 
	C691.077942,63.506798 682.893005,61.896942 674.675781,65.695419 
	C669.626099,68.029671 661.937622,78.843987 663.746155,84.545364 
	C676.716248,84.545364 689.686340,84.545364 703.729065,84.545364 
	C701.803162,79.570007 700.169067,75.348450 698.038330,70.576889 
z"/>
<path fill="#213F7D" opacity="1.000000" stroke="none" 
	d="
M830.348450,107.564186 
	C824.110107,91.178383 818.038574,75.144920 811.963867,59.103119 
	C819.273865,56.591042 820.717773,57.393990 823.120483,63.931393 
	C828.697449,79.105576 834.453186,94.214035 840.534485,110.409073 
	C844.264526,100.483383 847.621948,91.563339 850.968384,82.639191 
	C853.231506,76.604103 855.536621,70.583916 857.718994,64.519638 
	C860.344849,57.223141 860.524231,57.080551 869.026306,58.676609 
	C865.568054,68.018135 862.214355,77.310081 858.692627,86.537888 
	C852.860962,101.818283 846.920410,117.057076 841.030334,132.315155 
	C840.851746,132.777878 840.785645,133.291443 840.563904,133.729004 
	C833.925964,146.826355 831.234192,146.951553 818.369873,145.430984 
	C818.369873,143.245865 818.369873,141.011551 818.369873,138.668320 
	C818.826721,138.473282 819.309570,138.057266 819.689331,138.136383 
	C825.673645,139.382629 830.132141,137.698563 832.117004,131.555267 
	C833.624207,126.890358 837.191528,122.580200 834.192627,117.115822 
	C832.615540,114.242195 831.719055,110.995033 830.348450,107.564186 
z"/>
<path fill="#213E7D" opacity="1.000000" stroke="none" 
	d="
M512.702271,104.573601 
	C509.236359,116.713959 498.609985,122.830772 487.271698,123.289284 
	C467.137146,124.103539 457.338318,109.594528 456.954498,92.471703 
	C456.690277,80.685081 458.955078,69.852531 468.542480,62.092533 
	C477.396088,54.926521 487.574493,54.469940 498.117554,57.935799 
	C507.276276,60.946571 511.022522,68.186913 512.876892,76.880836 
	C512.972168,77.327545 512.720886,77.848183 512.596558,78.520386 
	C508.011047,79.465179 504.452911,79.993195 502.499573,73.693748 
	C500.712585,67.930618 495.499817,64.713089 489.183258,63.999413 
	C481.176025,63.094719 474.331055,65.602524 470.381500,72.565536 
	C463.986847,83.839142 463.770813,95.553017 470.402130,107.033310 
	C474.342346,113.854713 480.746490,116.422432 488.067078,115.823700 
	C495.889771,115.183884 501.890259,111.072083 503.998749,103.082680 
	C505.594574,97.035912 509.765533,99.314178 513.884949,99.250214 
	C513.498352,101.128502 513.181030,102.670380 512.702271,104.573601 
z"/>
<path fill="#FBCF0C" opacity="1.000000" stroke="none" 
	d="
M949.123352,39.000484 
	C947.188660,39.072849 945.739990,39.145203 944.034424,39.230381 
	C944.034424,45.823185 944.034424,52.105034 944.034424,58.690430 
	C940.358337,58.690430 936.962463,58.690430 933.093079,58.690430 
	C933.093079,52.306503 933.093079,45.897312 933.093079,39.034294 
	C926.238403,39.034294 919.828979,39.034294 913.219238,39.034294 
	C913.219238,35.295723 913.219238,32.013363 913.219238,28.263496 
	C919.516968,28.263496 925.925903,28.263496 932.801270,28.263496 
	C932.801270,21.417284 932.801270,15.010180 932.801270,8.307835 
	C936.656860,8.307835 940.051941,8.307835 943.921570,8.307835 
	C943.921570,14.713509 943.921570,21.120584 943.921570,27.982456 
	C950.777283,27.982456 957.187500,27.982456 963.789062,27.982456 
	C963.789062,31.722578 963.789062,35.004749 963.789062,39.000473 
	C959.125732,39.000473 954.367554,39.000473 949.123352,39.000484 
z"/>
<path fill="#213E7C" opacity="1.000000" stroke="none" 
	d="
M574.327393,143.246307 
	C570.949585,148.800568 566.076599,146.569595 561.337891,146.813156 
	C561.337891,140.864716 561.337891,135.305969 561.337891,129.026840 
	C564.267761,129.026840 567.095886,128.680939 569.775024,129.162964 
	C571.264771,129.431000 573.423401,130.888351 573.684326,132.141937 
	C574.412170,135.638840 574.307251,139.309128 574.327393,143.246307 
M567.324219,139.017899 
	C566.232849,139.833755 565.141479,140.649628 564.050110,141.465485 
	C564.789673,142.293640 565.669861,143.903229 566.241882,143.800308 
	C567.824097,143.515640 569.277710,142.516281 570.782166,141.799423 
	C569.902161,140.880264 569.022095,139.961090 567.324219,139.017899 
z"/>
<path fill="#213E7C" opacity="1.000000" stroke="none" 
	d="
M674.638550,129.003632 
	C679.367310,129.095230 680.414307,131.569214 679.799438,135.339508 
	C679.652466,136.240982 679.473145,137.267029 679.749817,138.086899 
	C681.671204,143.779556 679.640503,146.790527 673.587219,146.986267 
	C671.633850,147.049454 669.676758,146.996201 667.361938,146.996201 
	C667.361938,140.924667 667.361938,135.371094 667.361938,129.000427 
	C669.699829,129.000427 671.949097,129.000427 674.638550,129.003632 
M672.541565,143.972321 
	C673.995911,143.070557 675.450256,142.168793 676.904541,141.266998 
	C676.408875,140.553940 675.920959,139.243347 675.416138,139.236816 
	C673.716248,139.214859 672.010254,139.656754 670.306580,139.921219 
	C670.775513,141.251404 671.244446,142.581589 672.541565,143.972321 
z"/>
<path fill="#213E7C" opacity="1.000000" stroke="none" 
	d="
M473.068176,142.843750 
	C473.116333,144.392334 473.091736,145.558441 473.067169,146.724548 
	C472.071564,146.103592 470.728485,145.712128 470.140564,144.821930 
	C467.591064,140.961609 464.819641,140.899948 462.037018,144.708893 
	C461.312775,145.700256 460.160431,146.378876 459.204742,147.201141 
	C458.741241,146.898621 458.277740,146.596100 457.814240,146.293579 
	C459.894531,140.896301 461.591064,135.301743 464.220551,130.186752 
	C465.494476,127.708633 467.935516,128.750137 468.934143,131.334152 
	C470.357147,135.016434 471.648071,138.749756 473.068176,142.843750 
z"/>
<path fill="#203E7C" opacity="1.000000" stroke="none" 
	d="
M752.468018,137.468536 
	C751.416992,137.380356 750.366028,137.292175 749.315002,137.203979 
	C749.673401,136.193542 749.813110,134.493866 750.430115,134.298004 
	C752.532959,133.630554 754.978943,132.846695 756.949524,133.379868 
	C758.266479,133.736206 759.486023,136.139481 759.880798,137.829575 
	C760.504089,140.498077 760.398315,143.336884 760.633423,146.544205 
	C758.554749,146.681381 756.361206,146.758102 754.183655,146.986923 
	C751.424316,147.276840 748.589294,146.693466 748.647888,143.695374 
	C748.681458,141.978271 751.222839,140.310165 753.193970,138.321014 
	C754.604065,137.888351 755.455322,137.754669 756.306519,137.620972 
	C756.200623,137.169067 756.094666,136.717163 755.988708,136.265259 
	C754.815125,136.666351 753.641602,137.067444 752.468018,137.468536 
z"/>
<path fill="#203E7C" opacity="1.000000" stroke="none" 
	d="
M494.806152,134.777985 
	C501.550110,130.996719 504.641846,132.795944 505.198730,140.700287 
	C502.652985,140.896973 500.098785,141.094315 497.460083,141.298187 
	C498.776428,143.721130 498.776428,143.721130 505.206970,143.032806 
	C504.183807,144.278595 503.150696,146.573837 502.139435,146.564255 
	C499.580841,146.539978 495.446625,146.156052 494.821442,144.689407 
	C493.651550,141.945053 494.518311,138.332504 494.806152,134.777985 
z"/>
<path fill="#213E7C" opacity="1.000000" stroke="none" 
	d="
M512.624084,133.262634 
	C519.639526,132.992340 519.777466,133.223465 520.065491,139.443954 
	C520.164490,141.582199 520.977722,143.687363 521.682983,146.757996 
	C518.455383,146.757996 515.026184,147.114944 511.751740,146.559525 
	C510.643097,146.371475 509.349548,143.923492 509.226562,142.419479 
	C509.140594,141.367813 510.702393,139.847427 511.885956,139.112396 
	C513.295532,138.237030 515.087708,137.977676 516.714172,137.451431 
	C516.572876,137.011703 516.431580,136.571991 516.290283,136.132263 
	C514.574951,136.632202 512.859619,137.132141 509.413666,138.136459 
	C510.721008,135.942139 511.479126,134.669647 512.624084,133.262634 
z"/>
<path fill="#203E7C" opacity="1.000000" stroke="none" 
	d="
M791.953857,140.990906 
	C790.141602,141.136246 788.746460,141.273483 787.351379,141.410721 
	C787.432739,142.022781 787.514160,142.634842 787.595581,143.246887 
	C789.778259,142.989273 791.960938,142.731644 795.086487,142.362732 
	C794.293823,143.876511 793.842651,145.948013 792.993164,146.126755 
	C790.716187,146.605942 787.743835,147.137772 786.001892,146.078934 
	C782.736267,144.093994 782.270203,140.522034 783.615906,136.840424 
	C784.988770,133.084335 788.056580,132.233185 791.229309,133.253403 
	C792.793335,133.756332 794.058472,136.072678 794.775818,137.844910 
	C795.026733,138.464844 793.231812,139.912888 791.953857,140.990906 
z"/>
<path fill="#213E7C" opacity="1.000000" stroke="none" 
	d="
M533.889282,132.359619 
	C534.322510,130.983780 534.685791,129.975098 535.049133,128.966415 
	C535.508789,129.053619 535.968445,129.140823 536.428101,129.228027 
	C536.428101,134.982712 536.428101,140.737381 536.428101,146.733215 
	C535.353943,146.678802 534.242126,146.518875 533.143677,146.583923 
	C526.742004,146.963104 525.140076,145.792358 525.001526,140.530533 
	C524.840515,134.415939 526.264038,133.145065 533.112427,133.236633 
	C533.345764,133.239761 533.583618,132.904373 533.889282,132.359619 
M530.417603,143.860184 
	C533.668274,142.931824 534.504517,140.780457 532.865356,138.022156 
	C532.326904,137.116104 530.620789,136.903976 529.448608,136.374542 
	C529.315491,138.567932 529.161804,140.760544 529.078796,142.955841 
	C529.069824,143.192566 529.470215,143.444794 530.417603,143.860184 
z"/>
<path fill="#213E7C" opacity="1.000000" stroke="none" 
	d="
M584.984497,133.010895 
	C590.087219,133.101379 589.984924,136.859711 591.134460,140.507431 
	C588.004211,140.829544 585.205566,141.117538 582.406921,141.405518 
	C582.490051,142.023651 582.573181,142.641769 582.656311,143.259888 
	C585.120056,142.950775 587.583801,142.641678 590.353027,142.294235 
	C589.694397,146.387085 587.104370,147.140961 583.607117,147.031143 
	C579.506470,146.902359 578.340393,143.680573 578.354980,140.956024 
	C578.374878,137.244507 579.317566,133.130463 584.984497,133.010895 
z"/>
<path fill="#213E7C" opacity="1.000000" stroke="none" 
	d="
M738.326660,146.994141 
	C733.014648,146.964294 732.206360,143.115158 732.247437,139.783463 
	C732.285889,136.667206 733.182617,133.266342 737.775574,132.842636 
	C739.510254,132.682617 741.079285,130.727707 743.252930,129.225204 
	C743.252930,134.854187 743.252930,140.525208 743.252930,146.677948 
	C741.949585,146.770569 740.353333,146.884003 738.326660,146.994141 
M739.294250,143.759537 
	C739.814453,141.858200 740.508362,139.977859 740.742432,138.041916 
	C740.807312,137.505508 739.564331,136.399017 738.816284,136.292542 
	C738.075439,136.187103 736.592163,136.902359 736.491943,137.450836 
	C736.054443,139.845291 734.681885,142.743347 739.294250,143.759537 
z"/>
<path fill="#203E7C" opacity="1.000000" stroke="none" 
	d="
M651.974487,131.563126 
	C651.990784,136.769562 651.990784,141.537811 651.990784,147.962952 
	C647.877563,146.733078 643.827576,146.622787 641.758057,144.542419 
	C640.203857,142.980057 640.336731,138.544220 641.338318,136.033798 
	C642.067627,134.205734 645.438721,133.431580 648.041870,133.138519 
	C648.948730,131.836594 649.855591,130.534683 650.762451,129.232758 
	C651.161011,129.863480 651.559570,130.494202 651.974487,131.563126 
M648.939819,139.612259 
	C647.861023,138.481659 646.782166,137.351059 645.703308,136.220474 
	C644.823547,137.483032 643.255127,138.746979 643.257690,140.007721 
	C643.260254,141.268631 644.833679,142.526352 645.718445,143.785461 
	C646.792847,142.651901 647.867249,141.518341 648.939819,139.612259 
z"/>
<path fill="#203D7C" opacity="1.000000" stroke="none" 
	d="
M435.329254,146.100372 
	C435.157654,140.233368 435.157654,134.748978 435.157654,129.264572 
	C435.836792,129.198318 436.515930,129.132050 437.195038,129.065796 
	C437.604248,131.342041 438.013428,133.618286 438.431824,135.945694 
	C440.553986,134.877609 442.802917,133.745728 445.051819,132.613846 
	C445.340942,133.016434 445.630066,133.419022 445.919189,133.821609 
	C444.676941,135.449768 443.434692,137.077927 442.176758,138.726654 
	C443.456268,141.200745 444.716675,143.637924 445.977112,146.075089 
	C445.570923,146.483902 445.164734,146.892715 444.758545,147.301529 
	C442.879883,145.666077 441.001221,144.030624 439.400513,142.637177 
	C438.130554,143.889587 436.815704,145.186279 435.329254,146.100372 
z"/>
<path fill="#203D7B" opacity="1.000000" stroke="none" 
	d="
M609.783813,145.205475 
	C606.731140,138.821091 608.411255,133.146255 613.286072,133.203674 
	C615.506714,133.229843 618.422913,134.639206 619.750244,136.387756 
	C621.930481,139.259888 621.445068,143.407806 618.575317,145.238922 
	C616.515808,146.553101 612.947083,145.502075 609.783813,145.205475 
M616.574097,137.297714 
	C615.192139,137.274673 612.850342,136.803940 612.612244,137.314484 
	C611.958252,138.716476 611.827209,140.623428 612.219482,142.141846 
	C612.414062,142.894897 614.213440,143.233337 615.286743,143.759338 
	C615.850037,142.343689 616.459778,140.943787 616.947998,139.502686 
	C617.093262,139.073807 616.897095,138.529282 616.574097,137.297714 
z"/>
<path fill="#213E7C" opacity="1.000000" stroke="none" 
	d="
M805.923950,138.075836 
	C808.424438,139.152557 811.283081,140.483307 809.704956,143.680649 
	C808.922485,145.266052 806.368652,146.444656 804.411621,146.873322 
	C801.470642,147.517487 799.443726,146.055084 798.916260,142.073074 
	C801.783447,142.823166 804.066284,143.420380 806.349121,144.017593 
	C806.519226,143.560760 806.689331,143.103928 806.859497,142.647095 
	C805.502441,142.091324 803.961609,141.776779 802.834961,140.918564 
	C801.430725,139.848953 800.368103,138.331039 799.158020,137.006653 
	C800.767334,135.673965 802.292358,133.424026 804.009644,133.266220 
	C805.730835,133.108047 807.643982,135.037796 809.472961,136.052399 
	C808.707031,136.606476 807.941101,137.160538 806.666809,137.333771 
	C805.251099,136.755524 804.343750,136.558136 803.436462,136.360733 
	C803.401672,136.745422 803.366882,137.130112 803.332092,137.514801 
	C804.196045,137.701813 805.059998,137.888824 805.923950,138.075836 
z"/>
<path fill="#203E7C" opacity="1.000000" stroke="none" 
	d="
M478.007690,143.592056 
	C478.002441,138.495010 478.002441,133.850876 478.002441,129.206757 
	C478.657196,129.118408 479.311920,129.030060 479.966675,128.941727 
	C480.527771,130.397171 481.088867,131.852631 481.144043,131.995773 
	C484.158234,133.265106 487.713928,133.751724 488.090759,135.116226 
	C489.103241,138.782501 488.757019,142.823990 488.950287,146.716507 
	C488.157135,146.768082 487.363953,146.819641 486.570770,146.871216 
	C486.378510,144.692551 486.430573,142.453430 485.911560,140.355606 
	C485.540649,138.856461 484.403595,137.546860 483.608368,136.152695 
	C482.741547,137.481293 481.425629,138.713974 481.116455,140.161667 
	C480.685638,142.178955 481.007935,144.357086 481.007935,146.466385 
	C480.521698,146.620071 480.035461,146.773758 479.549225,146.927444 
	C479.037109,145.966614 478.525024,145.005783 478.007690,143.592056 
z"/>
<path fill="#203F7C" opacity="1.000000" stroke="none" 
	d="
M405.558289,146.201599 
	C404.555450,145.680710 403.435425,144.916168 403.103027,143.895203 
	C402.711395,142.692337 403.250305,141.203506 402.929565,139.955963 
	C402.583221,138.609070 401.709656,137.397720 401.066101,136.127243 
	C400.056335,137.407898 398.560913,138.551163 398.150665,140.001419 
	C397.535370,142.176315 397.681549,144.566650 396.473724,146.812988 
	C394.639465,140.959381 394.940216,135.128998 395.260834,129.298080 
	C395.829529,129.179916 396.398224,129.061752 396.966888,128.943588 
	C397.520203,130.399933 398.073517,131.856293 398.633514,133.313049 
	C405.075928,132.740005 405.977905,133.527405 405.988647,139.880020 
	C405.992004,141.868057 405.859833,143.856323 405.558289,146.201599 
z"/>
<path fill="#213E7C" opacity="1.000000" stroke="none" 
	d="
M696.036621,136.162201 
	C697.710205,142.091660 696.068176,146.389297 692.088562,146.931473 
	C688.792725,147.380478 686.210022,146.374725 685.067017,142.891434 
	C683.935547,139.443115 684.261963,136.111557 687.322449,134.089813 
	C690.352905,132.087921 693.657227,132.096603 696.036621,136.162201 
M689.624939,136.254822 
	C689.089539,137.359528 688.067993,138.496109 688.137817,139.561142 
	C688.231628,140.991470 689.168579,142.366516 689.743591,143.765259 
	C690.865479,143.282715 692.591919,143.076614 692.968445,142.253235 
	C693.542542,140.997803 693.511841,139.214096 693.092773,137.853302 
	C692.852844,137.073944 691.337524,136.687302 689.624939,136.254822 
z"/>
<path fill="#213E7C" opacity="1.000000" stroke="none" 
	d="
M378.405792,131.847504 
	C378.116333,130.890808 378.206085,129.276047 378.348511,129.271393 
	C382.480774,129.136368 386.618347,129.162231 390.755035,129.162231 
	C390.845551,129.789383 390.936066,130.416519 391.026581,131.043671 
	C389.542755,131.561646 388.058899,132.079636 385.997498,132.799225 
	C385.997498,136.045151 386.170471,139.507507 385.910767,142.937119 
	C385.809479,144.274521 384.734314,145.538208 384.102722,146.835464 
	C383.402893,145.606674 382.255707,144.432648 382.097168,143.137604 
	C381.776672,140.519379 382.322510,137.774078 381.844482,135.205261 
	C381.614838,133.971283 379.868866,133.019501 378.405792,131.847504 
z"/>
<path fill="#203E7C" opacity="1.000000" stroke="none" 
	d="
M424.164490,136.230667 
	C422.834717,139.779175 421.906403,143.252823 420.978119,146.726486 
	C420.624023,146.751175 420.269958,146.775879 419.915894,146.800568 
	C419.915894,142.396790 419.915894,137.993011 419.915894,132.600372 
	C422.908264,133.380844 427.841461,133.265228 429.002167,135.300766 
	C430.719574,138.312546 429.758362,142.851715 429.937622,146.740570 
	C429.203369,146.792175 428.469147,146.843781 427.734894,146.895386 
	C427.489166,145.025543 427.463531,143.090698 426.935944,141.304092 
	C426.406464,139.511078 425.376526,137.865829 424.164490,136.230667 
z"/>
<path fill="#203E7C" opacity="1.000000" stroke="none" 
	d="
M628.006958,140.288818 
	C627.788391,142.777435 627.573486,144.832520 627.358582,146.887589 
	C626.803833,146.853699 626.249146,146.819794 625.694397,146.785889 
	C625.694397,142.425323 625.694397,138.064774 625.694397,132.400452 
	C628.965759,133.237244 633.833069,133.134415 634.808350,135.031921 
	C636.479797,138.283920 635.717712,142.786606 635.977417,146.764160 
	C635.162354,146.803589 634.347229,146.843033 633.532104,146.882462 
	C633.351990,144.631561 633.382263,142.335831 632.915710,140.145935 
	C632.618042,138.748459 631.584961,137.507660 630.881592,136.196625 
	C629.924561,137.416183 628.967590,138.635742 628.006958,140.288818 
z"/>
<path fill="#203E7C" opacity="1.000000" stroke="none" 
	d="
M701.004028,141.661438 
	C701.000305,138.557785 701.000305,135.901947 701.000305,133.246124 
	C701.810303,133.206177 702.620300,133.166229 703.430359,133.126297 
	C703.622314,135.262634 703.583801,137.454712 704.082581,139.516861 
	C704.451233,141.041092 705.519836,142.396027 706.276489,143.826431 
	C707.182678,142.381317 708.458496,141.040314 708.902344,139.464935 
	C709.469910,137.450424 709.366821,135.246994 709.552795,133.124969 
	C710.102051,133.140503 710.651367,133.156036 711.200684,133.171570 
	C711.200684,137.488312 711.200684,141.805054 711.200684,146.253876 
	C704.393799,148.170761 702.248901,147.349838 701.004028,141.661438 
z"/>
<path fill="#203E7C" opacity="1.000000" stroke="none" 
	d="
M720.578491,137.972321 
	C720.065796,141.142227 719.783142,143.964523 719.500549,146.786819 
	C718.971619,146.791412 718.442627,146.796005 717.913696,146.800613 
	C717.913696,142.397476 717.913696,137.994324 717.913696,132.601547 
	C720.906860,133.380280 725.838501,133.262009 726.997986,135.295135 
	C728.715820,138.307159 727.758362,142.845001 727.939880,146.733292 
	C727.109619,146.774261 726.279358,146.815216 725.449097,146.856186 
	C725.290833,144.342148 725.282410,141.807098 724.933350,139.319824 
	C724.561768,136.671478 723.746216,134.368103 720.578491,137.972321 
z"/>
<path fill="#FACE0B" opacity="1.000000" stroke="none" 
	d="
M927.940918,84.932869 
	C921.442932,79.678703 915.989868,73.629181 913.437317,65.325798 
	C920.670105,70.094574 926.263000,76.326187 929.684692,84.614914 
	C928.897095,84.975777 928.419006,84.954323 927.940918,84.932869 
z"/>
<path fill="#FBCE0C" opacity="1.000000" stroke="none" 
	d="
M946.924805,84.949013 
	C951.010620,77.139870 955.801758,69.931961 964.150940,64.730408 
	C961.825806,73.530960 955.760864,78.726555 949.743896,84.634842 
	C948.492310,84.971024 947.708557,84.960022 946.924805,84.949013 
z"/>
<path fill="#E09125" opacity="1.000000" stroke="none" 
	d="
M927.573059,85.108566 
	C928.419006,84.954323 928.897095,84.975777 929.733643,84.976234 
	C931.673462,85.042191 933.254883,85.129143 934.836304,85.216103 
	C927.157349,90.997047 918.540405,91.441780 909.715637,90.829826 
	C909.593628,90.325188 909.471619,89.820549 909.349548,89.315918 
	C915.301453,87.972031 921.253296,86.628143 927.573059,85.108566 
z"/>
<path fill="#E09125" opacity="1.000000" stroke="none" 
	d="
M946.543213,84.970955 
	C947.708557,84.960022 948.492310,84.971024 949.666992,84.958321 
	C955.187012,86.290947 960.319946,87.632858 965.440552,89.020348 
	C966.148071,89.212067 966.794556,89.629318 967.828857,90.108856 
	C958.933655,92.434433 946.729492,90.100899 942.237000,85.226555 
	C943.689758,85.140060 944.925659,85.066483 946.543213,84.970955 
z"/>
<path fill="#E09025" opacity="1.000000" stroke="none" 
	d="
M972.429077,75.998886 
	C971.239380,75.957939 970.453003,75.917328 968.565308,75.819824 
	C976.587463,70.035995 984.895325,68.812042 993.466614,68.354553 
	C987.624756,73.652512 980.298096,75.009109 972.429077,75.998886 
z"/>
<path fill="#E09025" opacity="1.000000" stroke="none" 
	d="
M971.875793,84.000580 
	C966.731201,84.000679 962.061646,84.000679 957.392151,84.000679 
	C957.386108,83.288010 957.380005,82.575333 957.373901,81.862663 
	C965.769897,78.964020 974.260803,79.426460 982.793152,81.358841 
	C982.846802,81.794403 982.900452,82.229958 982.954041,82.665520 
	C979.419678,83.110504 975.885254,83.555489 971.875793,84.000580 
z"/>
<path fill="#E09025" opacity="1.000000" stroke="none" 
	d="
M902.336304,83.999435 
	C899.606689,83.514008 897.336853,83.029121 894.568848,82.437828 
	C900.601868,79.104752 913.225098,79.096901 919.492981,83.092987 
	C916.901611,83.395424 914.317017,83.831528 911.716919,83.965034 
	C908.750549,84.117355 905.770203,84.000084 902.336304,83.999435 
z"/>
<path fill="#FACE0C" opacity="1.000000" stroke="none" 
	d="
M891.047241,8.963533 
	C891.083130,14.895974 891.083130,20.388105 891.083130,27.092770 
	C885.952332,19.858971 886.223145,7.953073 890.167725,2.233068 
	C890.526672,4.909586 890.768982,6.716406 891.047241,8.963533 
z"/>
<path fill="#E09025" opacity="1.000000" stroke="none" 
	d="
M885.761108,70.319260 
	C884.796936,69.717857 884.129333,69.353569 883.167725,68.828880 
	C889.509766,67.320404 899.679749,70.057266 907.391235,75.125694 
	C902.439148,76.771049 896.461792,75.490784 885.761108,70.319260 
z"/>
<path fill="#E09025" opacity="1.000000" stroke="none" 
	d="
M882.158264,22.702068 
	C885.500183,29.417896 888.571655,35.858395 891.643188,42.298897 
	C891.087830,42.585159 890.532410,42.871426 889.977051,43.157688 
	C884.995178,39.508038 882.740051,34.068996 881.029785,28.302805 
	C880.573792,26.765358 880.245789,25.163811 880.131470,23.572126 
	C880.107178,23.234125 881.271301,22.810772 882.158264,22.702068 
z"/>
<path fill="#FBCE0C" opacity="1.000000" stroke="none" 
	d="
M904.989624,67.938721 
	C903.316162,64.050407 901.696960,60.531979 900.077759,57.013550 
	C900.574463,56.780899 901.071167,56.548252 901.567871,56.315601 
	C907.746338,61.351635 911.506592,67.770676 911.699646,76.416229 
	C909.481018,73.713692 907.262451,71.011147 904.989624,67.938721 
z"/>
<path fill="#FBCE0C" opacity="1.000000" stroke="none" 
	d="
M976.021790,59.254349 
	C974.423279,65.811386 971.303223,70.586960 965.625793,75.526169 
	C964.746460,69.913307 969.846558,60.529697 977.011841,55.530434 
	C976.544312,57.134708 976.291809,58.001099 976.021790,59.254349 
z"/>
<path fill="#E09025" opacity="1.000000" stroke="none" 
	d="
M988.955811,34.971111 
	C991.102783,30.312000 993.209167,26.043453 995.681580,21.033213 
	C998.070862,28.079874 994.296753,37.015179 986.358826,43.381969 
	C987.449585,39.959877 988.182434,37.660778 988.955811,34.971111 
z"/>
<path fill="#FBCE0C" opacity="1.000000" stroke="none" 
	d="
M986.773987,25.828508 
	C985.239563,18.115007 984.934570,10.523294 987.976013,3.126902 
	C990.423157,10.790830 991.467285,18.412331 986.773987,25.828508 
z"/>
<path fill="#FACE0C" opacity="1.000000" stroke="none" 
	d="
M899.000000,22.228249 
	C897.346008,28.718361 895.692017,34.789253 894.038025,40.860146 
	C893.365295,40.669456 892.692627,40.478767 892.019958,40.288078 
	C891.961792,32.428299 893.299683,24.949633 899.000061,18.552637 
	C899.000061,19.638102 899.000061,20.723566 899.000000,22.228249 
z"/>
<path fill="#E09025" opacity="1.000000" stroke="none" 
	d="
M889.286560,57.704132 
	C893.413025,60.568871 897.237244,63.213303 901.061401,65.857735 
	C900.784851,66.265335 900.508240,66.672935 900.231689,67.080536 
	C891.979309,65.686569 885.851562,60.771824 880.372131,54.782589 
	C880.593811,54.355637 880.815552,53.928684 881.037292,53.501732 
	C883.686279,54.829094 886.335266,56.156460 889.286560,57.704132 
z"/>
<path fill="#FACE0B" opacity="1.000000" stroke="none" 
	d="
M982.982788,25.261150 
	C983.890137,30.507481 984.773315,35.346428 985.656555,40.185375 
	C985.122070,40.292374 984.587646,40.399372 984.053223,40.506371 
	C979.824890,33.708317 978.774414,26.071234 978.100342,18.334755 
	C978.493835,18.173492 978.887268,18.012230 979.280701,17.850967 
	C980.506714,20.185234 981.732666,22.519501 982.982788,25.261150 
z"/>
<path fill="#E09025" opacity="1.000000" stroke="none" 
	d="
M884.247681,41.746109 
	C887.194885,45.288837 889.888245,48.576714 892.581604,51.864590 
	C885.940063,51.211338 878.393738,42.945019 877.028015,35.812668 
	C879.693604,37.985680 881.843689,39.738468 884.247681,41.746109 
z"/>
<path fill="#E09025" opacity="1.000000" stroke="none" 
	d="
M994.225342,57.274338 
	C989.524353,62.267662 984.221069,65.534836 977.661133,66.667839 
	C982.480103,60.303482 989.056396,56.592136 996.763916,54.477333 
	C995.999756,55.325047 995.235596,56.172760 994.225342,57.274338 
z"/>
<path fill="#FACE0C" opacity="1.000000" stroke="none" 
	d="
M896.954346,43.091591 
	C897.840698,40.733730 898.687500,38.789742 899.534241,36.845753 
	C901.996887,44.733215 898.988220,51.294941 896.457458,57.955673 
	C895.817993,57.856972 895.178467,57.758266 894.538940,57.659561 
	C895.330872,52.941532 896.122803,48.223499 896.954346,43.091591 
z"/>
<path fill="#FACE0C" opacity="1.000000" stroke="none" 
	d="
M979.390381,39.869278 
	C980.706848,45.848061 981.751221,51.540359 982.795593,57.232662 
	C982.233032,57.347454 981.670471,57.462246 981.107910,57.577038 
	C976.949524,51.374744 976.720581,44.266140 977.116699,35.860176 
	C978.088684,37.667904 978.603516,38.625355 979.390381,39.869278 
z"/>
<path fill="#213E7C" opacity="1.000000" stroke="none" 
	d="
M765.007324,143.624054 
	C765.002014,140.042923 765.002014,136.908630 765.002014,133.452393 
	C767.449524,133.452393 769.568665,133.452393 770.877075,133.452393 
	C769.831421,137.626465 768.867920,141.616455 767.793030,145.576218 
	C767.663391,146.053696 766.931396,146.367645 766.478638,146.757385 
	C765.989990,145.861893 765.501343,144.966400 765.007324,143.624054 
z"/>
<path fill="#203E7C" opacity="1.000000" stroke="none" 
	d="
M411.001099,137.274765 
	C411.245148,135.565216 411.487915,134.306137 411.730682,133.047058 
	C412.252106,133.120529 412.773560,133.193985 413.294983,133.267441 
	C413.294983,137.754929 413.294983,142.242401 413.294983,146.729874 
	C412.628235,146.769684 411.961487,146.809479 411.294739,146.849289 
	C411.196411,143.807938 411.098114,140.766602 411.001099,137.274765 
z"/>
<path fill="#203E7C" opacity="1.000000" stroke="none" 
	d="
M776.422363,146.170837 
	C776.198914,141.588776 776.198914,137.377869 776.198914,133.166977 
	C776.954102,133.179214 777.709351,133.191467 778.464539,133.203720 
	C778.464539,137.578964 778.474487,141.954422 778.388733,146.327988 
	C778.387146,146.410690 777.252075,146.471146 776.422363,146.170837 
z"/>
<path fill="#000000" opacity="1.000000" stroke="none" 
	d="
M74.682251,79.705925 
	C77.463905,73.106194 80.384300,66.953262 82.514786,60.538013 
	C83.758698,56.792385 85.637428,55.558533 89.330467,55.949673 
	C91.791267,56.210300 94.302040,55.999149 97.572327,55.999149 
	C95.957726,59.853699 94.617409,63.274853 93.108086,66.619751 
	C84.945648,84.709030 76.676376,102.750450 68.593132,120.874908 
	C66.321747,125.967865 62.061230,123.478676 58.609447,123.926491 
	C55.264034,124.360497 55.348545,121.770943 54.850548,119.368935 
	C50.803432,99.848366 46.586449,80.363045 42.463615,60.858028 
	C42.171764,59.477295 42.216965,58.025318 42.059341,56.020035 
	C45.555435,56.020035 48.562294,55.698376 51.441521,56.164719 
	C52.751133,56.376835 54.625721,57.996906 54.854572,59.235134 
	C57.398739,73.000732 59.655766,86.819221 62.036129,100.615524 
	C62.307999,102.191284 62.858772,103.718925 63.708168,106.842690 
	C67.663071,97.011444 71.076187,88.527008 74.682251,79.705925 
z"/>
<path fill="#000000" opacity="1.000000" stroke="none" 
	d="
M187.000351,55.998848 
	C195.779037,55.998844 204.057861,55.998844 212.579315,55.998844 
	C212.753113,57.826138 212.990494,59.107018 212.976746,60.385193 
	C212.912842,66.318115 212.239746,66.979927 206.462036,66.998405 
	C202.841415,67.009987 199.220749,67.000565 195.206390,67.000565 
	C193.761703,78.459236 192.346634,89.380104 191.021149,100.311836 
	C190.247147,106.695107 189.683899,113.104149 188.890076,119.484703 
	C188.538788,122.308235 187.480484,124.494827 183.846008,124.054436 
	C181.432755,123.762024 178.955353,123.998993 176.055969,123.998993 
	C178.392792,104.770859 180.646347,86.227760 182.973892,67.075989 
	C177.233459,67.075989 171.980072,67.075989 166.088776,67.075989 
	C166.534683,63.287510 166.908432,60.112198 167.392593,55.998848 
	C173.697556,55.998848 180.099014,55.998848 187.000351,55.998848 
z"/>
<path fill="#000000" opacity="1.000000" stroke="none" 
	d="
M304.878723,68.589951 
	C293.312958,73.955551 288.031952,93.951614 292.592407,105.047615 
	C296.247986,113.941902 309.515594,116.054153 318.228271,109.188972 
	C319.397583,108.267586 320.435089,107.178886 322.139435,105.609978 
	C324.577484,108.535561 326.964233,111.399574 329.387787,114.307793 
	C319.010559,126.616508 298.936523,128.808258 286.718933,118.006844 
	C279.551636,111.670334 277.405273,102.774918 278.117889,93.539597 
	C279.036469,81.635422 283.353516,71.101707 292.549042,62.923588 
	C305.909485,51.041367 328.395538,52.485928 336.626648,69.013695 
	C333.617615,71.178223 330.557709,73.379349 327.498199,75.580185 
	C319.836700,66.423546 314.397247,64.673607 304.878723,68.589951 
z"/>
<path fill="#000000" opacity="1.000000" stroke="none" 
	d="
M406.903748,66.845032 
	C409.597015,59.515732 412.196075,52.565384 414.818451,45.623840 
	C414.988434,45.173813 415.337799,44.791546 416.154755,43.520416 
	C421.488068,57.871437 426.594452,71.611908 431.861145,85.783691 
	C421.030945,85.783691 410.932831,85.783691 399.790741,85.783691 
	C402.238037,79.318054 404.526489,73.272041 406.903748,66.845032 
z"/>
<path fill="#000000" opacity="1.000000" stroke="none" 
	d="
M620.696472,64.881195 
	C634.805969,69.241592 639.339783,93.154411 630.663879,106.746994 
	C622.617554,119.353203 603.920837,118.756584 596.794922,105.358475 
	C591.556091,95.508522 592.118835,85.220978 596.434631,75.346153 
	C600.651917,65.696823 609.566284,62.105045 620.696472,64.881195 
z"/>
<path fill="#000000" opacity="1.000000" stroke="none" 
	d="
M535.355957,113.894203 
	C530.568848,111.556145 529.498291,107.752213 530.045410,103.285919 
	C530.638916,98.440170 533.788208,95.278091 538.157471,94.202339 
	C544.364624,92.674057 550.794678,92.056366 557.123779,91.014954 
	C559.561218,90.613899 561.982971,90.117874 564.413879,89.664772 
	C567.856995,108.586754 553.948242,120.340569 535.355957,113.894203 
z"/>
<path fill="#000000" opacity="1.000000" stroke="none" 
	d="
M698.286621,70.851898 
	C700.169067,75.348450 701.803162,79.570007 703.729065,84.545364 
	C689.686340,84.545364 676.716248,84.545364 663.743652,84.548668 
	C661.937622,78.843987 669.626099,68.029671 674.675781,65.695419 
	C682.893005,61.896942 691.077942,63.506798 698.286621,70.851898 
z"/>
<path fill="#000000" opacity="1.000000" stroke="none" 
	d="
M567.733154,139.029907 
	C569.022095,139.961090 569.902161,140.880264 570.782166,141.799438 
	C569.277710,142.516281 567.824097,143.515640 566.241882,143.800308 
	C565.669861,143.903229 564.789673,142.293640 564.050110,141.465485 
	C565.141479,140.649628 566.232849,139.833755 567.733154,139.029907 
z"/>
<path fill="#000000" opacity="1.000000" stroke="none" 
	d="
M672.127441,143.942047 
	C671.244446,142.581589 670.775513,141.251404 670.306641,139.921204 
	C672.010254,139.656754 673.716248,139.214859 675.416138,139.236816 
	C675.920959,139.243347 676.408875,140.553940 676.904541,141.267014 
	C675.450256,142.168793 673.995911,143.070557 672.127441,143.942047 
z"/>
<path fill="#000000" opacity="1.000000" stroke="none" 
	d="
M752.612671,137.627640 
	C753.641602,137.067444 754.815125,136.666351 755.988708,136.265259 
	C756.094666,136.717163 756.200623,137.169067 756.306519,137.620972 
	C755.455322,137.754669 754.604065,137.888351 753.414307,138.048843 
	C753.075806,138.075638 752.757263,137.786743 752.612671,137.627640 
z"/>
<path fill="#000000" opacity="1.000000" stroke="none" 
	d="
M530.049194,143.775009 
	C529.470215,143.444794 529.069824,143.192566 529.078796,142.955841 
	C529.161804,140.760544 529.315491,138.567932 529.448608,136.374542 
	C530.620789,136.903976 532.326904,137.116104 532.865356,138.022156 
	C534.504517,140.780457 533.668274,142.931824 530.049194,143.775009 
z"/>
<path fill="#000000" opacity="1.000000" stroke="none" 
	d="
M738.896667,143.812866 
	C734.681885,142.743347 736.054443,139.845291 736.491943,137.450836 
	C736.592163,136.902359 738.075439,136.187103 738.816284,136.292542 
	C739.564331,136.399017 740.807312,137.505508 740.742432,138.041916 
	C740.508362,139.977859 739.814453,141.858200 738.896667,143.812866 
z"/>
<path fill="#000000" opacity="1.000000" stroke="none" 
	d="
M648.940796,139.998535 
	C647.867249,141.518341 646.792847,142.651901 645.718445,143.785461 
	C644.833679,142.526352 643.260254,141.268631 643.257690,140.007721 
	C643.255127,138.746979 644.823547,137.483032 645.703308,136.220459 
	C646.782166,137.351059 647.861023,138.481659 648.940796,139.998535 
z"/>
<path fill="#000000" opacity="1.000000" stroke="none" 
	d="
M616.715698,137.667725 
	C616.897095,138.529282 617.093262,139.073807 616.947998,139.502686 
	C616.459778,140.943787 615.850037,142.343689 615.286743,143.759338 
	C614.213440,143.233337 612.414062,142.894897 612.219482,142.141846 
	C611.827209,140.623428 611.958252,138.716476 612.612244,137.314484 
	C612.850342,136.803940 615.192139,137.274673 616.715698,137.667725 
z"/>
<path fill="#000000" opacity="1.000000" stroke="none" 
	d="
M806.081543,137.931793 
	C805.059998,137.888824 804.196045,137.701813 803.332092,137.514801 
	C803.366882,137.130112 803.401672,136.745422 803.436462,136.360733 
	C804.343750,136.558136 805.251099,136.755524 806.340942,137.211151 
	C806.523499,137.469391 806.239075,137.787766 806.081543,137.931793 
z"/>
<path fill="#000000" opacity="1.000000" stroke="none" 
	d="
M690.010681,136.189331 
	C691.337524,136.687302 692.852844,137.073944 693.092773,137.853302 
	C693.511841,139.214096 693.542542,140.997803 692.968445,142.253235 
	C692.591919,143.076614 690.865479,143.282715 689.743530,143.765274 
	C689.168579,142.366516 688.231628,140.991470 688.137817,139.561142 
	C688.067993,138.496109 689.089539,137.359528 690.010681,136.189331 
z"/>
</svg>